<svg width="15" height="19" viewBox="0 0 15 19" fill="none" xmlns="http://www.w3.org/2000/svg">
<path d="M8.07577 1C8.07577 0.530997 7.69556 0.150796 7.22656 0.150796C6.75756 0.150796 6.37736 0.530998 6.37736 1L8.07577 1ZM6.62609 14.6216C6.95772 14.9532 7.49541 14.9532 7.82704 14.6216L13.2313 9.2173C13.563 8.88567 13.563 8.34798 13.2313 8.01635C12.8997 7.68471 12.362 7.68471 12.0304 8.01635L7.22656 12.8202L2.42274 8.01635C2.09111 7.68471 1.55342 7.68471 1.22178 8.01635C0.89015 8.34798 0.89015 8.88567 1.22178 9.21731L6.62609 14.6216ZM6.37736 1L6.37736 14.0211L8.07577 14.0211L8.07577 1L6.37736 1Z" fill="black"/>
<path d="M1 17.6826H13.455" stroke="black" stroke-width="1.69841" stroke-linecap="round"/>
</svg>
