<svg width="19" height="19" viewBox="0 0 19 19" fill="none" xmlns="http://www.w3.org/2000/svg">
<path d="M7.16824 13.3596H3.29206C2.92598 13.3596 2.6189 13.2361 2.37083 12.9891C2.12275 12.742 1.99914 12.4367 2 12.073V6.92643C2 6.56188 2.12404 6.25609 2.37212 6.00906C2.62019 5.76202 2.92684 5.63894 3.29206 5.63979H7.16824L11.432 1.39389C11.8412 0.986456 12.3098 0.895105 12.8378 1.11984C13.3658 1.34457 13.6294 1.74686 13.6285 2.3267V16.6727C13.6285 17.2517 13.3645 17.654 12.8365 17.8796C12.3085 18.1052 11.8403 18.0138 11.432 17.6055L7.16824 13.3596Z" fill="#323232"/>
<path d="M18 1L1 18" stroke="#E25050" stroke-linecap="round"/>
</svg>
