<svg width="140" height="150" viewBox="0 0 140 150" fill="none" xmlns="http://www.w3.org/2000/svg">
<path d="M79.3331 149.995C74.2776 149.995 69.1898 149.517 64.1144 148.552C43.0946 144.548 24.9008 132.629 12.8809 114.991C1.70613 98.593 -2.38997 78.8428 1.34822 59.3773C5.0864 39.9118 16.209 23.0609 32.6704 11.9293C47.9736 1.58004 66.4086 -2.21303 84.5775 1.24827C102.747 4.70957 118.475 15.0118 128.864 30.2558C138.525 44.4303 142.065 61.5041 138.836 78.3328C135.607 95.1614 125.988 109.727 111.759 119.351C101.722 126.14 90.1252 129.665 78.2544 129.665C74.4765 129.665 70.6737 129.309 66.8808 128.586C51.1725 125.593 37.5743 116.687 28.5917 103.505C20.238 91.2495 17.1759 76.4857 19.9696 61.9349C22.7633 47.3841 31.0772 34.7867 43.3829 26.4677C67.0051 10.4933 99.2693 16.6409 115.306 40.1693C130.221 62.0538 124.482 91.9452 102.513 106.803C92.6131 113.498 80.6902 115.951 68.9388 113.713C57.1874 111.475 47.0142 104.81 40.2935 94.951C27.3888 76.0178 32.3548 50.1546 51.3614 37.2998C69.0432 25.3412 93.1972 29.9439 105.202 47.5574C116.372 63.9453 112.072 86.3299 95.6206 97.4541C88.2064 102.468 79.2735 104.307 70.4699 102.629C61.6662 100.953 54.0457 95.9586 49.0126 88.5731C44.3274 81.7 42.6099 73.4206 44.1783 65.26C45.7441 57.0995 50.4069 50.0358 57.3092 45.3687C63.7317 41.026 71.4665 39.434 79.092 40.8873C86.7175 42.3407 93.3165 46.6636 97.6761 53.0613C101.516 58.6964 102.821 65.5472 101.347 72.3485C99.8211 79.3974 95.4839 85.5549 89.4466 89.2415C84.6645 92.4701 78.3812 93.5224 72.2097 92.126C66.1376 90.7543 60.7565 87.1816 57.4459 82.3239C54.3489 77.7782 53.2131 72.304 54.2495 66.9065C55.286 61.5091 58.3705 56.8395 62.9313 53.7521C67.1815 50.8776 72.3017 49.8228 77.3472 50.786C82.3928 51.7466 86.7623 54.6087 89.6479 58.8425C89.8691 59.1669 89.7846 59.6076 89.459 59.8279C89.1334 60.0483 88.691 59.9641 88.4698 59.6398C85.7979 55.7179 81.7515 53.0687 77.0788 52.1799C72.4061 51.2886 67.6637 52.2641 63.7292 54.9281C59.4815 57.8026 56.6082 62.1503 55.6439 67.1764C54.6795 72.2 55.7358 77.2978 58.6215 81.5316C61.7309 86.0947 66.7988 89.4545 72.5229 90.7494C78.319 92.0591 84.1997 91.0811 88.6587 88.0655C88.6687 88.0581 88.6786 88.0531 88.6861 88.0482C94.4002 84.5646 98.5062 78.7339 99.9528 72.0564C101.345 65.6364 100.114 59.1743 96.4955 53.8635C92.3497 47.7802 86.0713 43.6678 78.8211 42.2862C71.5709 40.9047 64.2139 42.4199 58.1045 46.5497C51.518 51.0038 47.0689 57.7457 45.5726 65.5349C44.0764 73.324 45.7168 81.2271 50.1882 87.7857C55.0101 94.8594 62.3075 99.6403 70.7358 101.245C79.1666 102.852 87.7192 101.091 94.8203 96.2879C110.623 85.602 114.751 64.1013 104.022 48.3596C92.4566 31.3923 69.1923 26.9604 52.1567 38.4783C33.7988 50.8949 29.0018 75.8742 41.4666 94.1611C47.9736 103.708 57.8237 110.16 69.2023 112.327C80.5809 114.493 92.126 112.119 101.71 105.637C123.031 91.2198 128.601 62.2097 114.125 40.9715C98.5286 18.0868 67.1517 12.11 44.1783 27.6463C32.1882 35.7548 24.0855 48.0303 21.3639 62.2073C18.6423 76.3867 21.6249 90.7716 29.7649 102.715C38.5337 115.583 51.8088 124.278 67.1443 127.199C82.4798 130.121 98.039 126.92 110.956 118.182C124.872 108.771 134.275 94.5251 137.434 78.0703C140.593 61.6155 137.131 44.9181 127.683 31.0556C117.508 16.1234 102.103 6.03418 84.3066 2.6422C66.5105 -0.747298 48.4558 2.96654 33.4658 13.1053C17.32 24.024 6.40869 40.5531 2.74258 59.6472C-0.923524 78.7413 3.09552 98.1152 14.0566 114.199C25.8627 131.522 43.7359 143.228 64.3804 147.163C85.0249 151.097 105.973 146.786 123.364 135.023C123.689 134.803 124.132 134.887 124.353 135.211C124.574 135.536 124.49 135.977 124.164 136.197C110.732 145.281 95.2155 150 79.3307 150L79.3331 149.995Z" fill="#A8DB10"/>
</svg>
