<svg width="111" height="140" viewBox="0 0 111 140" fill="none" xmlns="http://www.w3.org/2000/svg">
<path d="M20 138L3 121L20 104L3 87L20 70L3 53L20 36L2.99999 19L20 2" stroke="#A8DB10" stroke-width="3"/>
<path d="M42 138L25 121L42 104L25 87L42 70L25 53L42 36L25 19L42 2" stroke="#A8DB10" stroke-width="3"/>
<path d="M64 138L47 121L64 104L47 87L64 70L47 53L64 36L47 19L64 2" stroke="#A8DB10" stroke-width="3"/>
<path d="M86 138L69 121L86 104L69 87L86 70L69 53L86 36L69 19L86 2" stroke="#A8DB10" stroke-width="3"/>
<path d="M108 138L91 121L108 104L91 87L108 70L91 53L108 36L91 19L108 2" stroke="#A8DB10" stroke-width="3"/>
</svg>
