<svg width="60" height="65" viewBox="0 0 60 65" fill="none" xmlns="http://www.w3.org/2000/svg">
<mask id="path-1-inside-1_3412_5" fill="white">
<path d="M41.8838 25.0837L42.2065 25.0878C42.6286 25.0918 42.9776 24.753 42.9817 24.3355L43 22.7564C43.004 22.3369 42.6631 21.99 42.243 21.9859L41.9204 21.9819C41.4983 21.9779 41.1492 22.3167 41.1451 22.7342V22.9782L39.5765 22.9601L39.6373 17.7608C39.6455 17.0488 38.9656 16.5225 38.2736 16.714C37.6384 16.8895 37.0033 17.1114 36.3721 17.1537C36.2078 17.1658 36.0434 17.1315 35.8932 17.069C34.6289 16.5366 32.6868 15.3729 30.2699 15.3789C28.1168 15.383 26.3431 16.4156 25.1296 16.9137C24.9409 16.9903 24.7318 17.0105 24.5309 16.9742L21.8481 16.4902C21.1906 16.3712 20.5859 16.8693 20.5778 17.5308L20.5169 22.7221L19.0294 22.7039V22.4599C19.0375 22.0404 18.6966 21.6935 18.2745 21.6895L17.9518 21.6854C17.5297 21.6814 17.1806 22.0202 17.1766 22.4377L17.1583 24.0168C17.1543 24.4363 17.4952 24.7832 17.9153 24.7873L18.2379 24.7913C18.66 24.7953 19.0091 24.4565 19.0131 24.039V23.9624L20.5007 23.9805L20.4377 29.2323L18.9502 29.2141V28.9701C18.9584 28.5506 18.6174 28.2037 18.1953 28.1997L17.8727 28.1956C17.4505 28.1916 17.1015 28.5304 17.0974 28.9479L17.0792 30.5271C17.0751 30.9465 17.4161 31.2934 17.8361 31.2975L18.1588 31.3015C18.5809 31.3055 18.9299 30.9667 18.934 30.5492V30.4726L20.4235 30.4908L20.3606 35.7425L18.8731 35.7243V35.4803C18.8812 35.0608 18.5403 34.7139 18.1182 34.7099L17.7955 34.7058C17.3734 34.7018 17.0244 35.0406 17.0203 35.4581L17 37.0413C16.996 37.4608 17.3369 37.8077 17.757 37.8117L18.0796 37.8157C18.5017 37.8198 18.8508 37.4809 18.8549 37.0635V36.9868L20.3444 37.005L20.2754 42.8194C20.2693 43.4083 20.7482 43.8903 21.3408 43.8903C23.7598 43.8903 25.712 45.8547 25.6836 48.2587L25.6268 53.0869L25.6349 61.4425C25.6349 61.5251 25.7019 61.5917 25.7871 61.5917H26.6009C26.6841 61.5917 26.7531 61.5251 26.7531 61.4404V53.099L29.0888 53.1272V64.2276C29.0888 64.3103 29.1558 64.3789 29.241 64.3789H30.0548C30.138 64.3789 30.207 64.3124 30.207 64.2276V53.1413L32.626 53.1696V61.4425C32.626 61.5251 32.6929 61.5937 32.7782 61.5937H33.5919C33.6751 61.5937 33.7441 61.5272 33.7441 61.4425V53.1817L33.801 48.4563C33.8294 46.0362 35.812 44.088 38.2493 44.088H38.2615C38.852 44.088 39.3329 43.616 39.339 43.0291L39.408 37.2369L40.9747 37.2551V37.3317C40.9686 37.7512 41.3095 38.0981 41.7316 38.1021L42.0543 38.1062C42.4764 38.1102 42.8254 37.7714 42.8295 37.3539L42.8478 35.7747C42.8518 35.3553 42.5109 35.0084 42.0908 35.0043L41.7682 35.0003C41.3461 34.9963 40.997 35.3331 40.9929 35.7526V35.9966L39.4243 35.9784L39.4872 30.7267L41.0538 30.7449V30.8215C41.0477 31.241 41.3887 31.5879 41.8108 31.5919L42.1334 31.596C42.5555 31.6 42.9046 31.2612 42.9086 30.8437L42.9269 29.2645C42.931 28.845 42.59 28.4982 42.17 28.4941L41.8473 28.4901C41.4252 28.4861 41.0761 28.8249 41.0721 29.2424V29.4864L39.5034 29.4682L39.5663 24.2165L41.133 24.2347V24.3113C41.1269 24.7308 41.4678 25.0777 41.8899 25.0817L41.8838 25.0837ZM23.845 37.6241C23.0637 37.6141 22.4387 36.9788 22.4488 36.2023C22.459 35.4258 23.0982 34.8047 23.8795 34.8148C24.6608 34.8248 25.2858 35.4601 25.2757 36.2366C25.2655 37.0131 24.6263 37.6342 23.845 37.6241ZM23.9201 31.2309C23.1388 31.2208 22.5138 30.5855 22.5239 29.8091C22.5341 29.0326 23.1733 28.4114 23.9546 28.4215C24.7359 28.4316 25.3609 29.0669 25.3508 29.8434C25.3406 30.6198 24.7014 31.241 23.9201 31.2309ZM23.9952 24.8377C23.2139 24.8276 22.5888 24.1923 22.599 23.4158C22.6091 22.6394 23.2484 22.0182 24.0297 22.0283C24.811 22.0384 25.436 22.6737 25.4259 23.4501C25.4157 24.2266 24.7765 24.8478 23.9952 24.8377ZM35.9805 37.7673C35.1992 37.7572 34.5741 37.122 34.5843 36.3455C34.5944 35.569 35.2337 34.9479 36.015 34.9579C36.7963 34.968 37.4213 35.6033 37.4112 36.3798C37.401 37.1562 36.7618 37.7774 35.9805 37.7673ZM36.0556 31.3741C35.2743 31.364 34.6492 30.7287 34.6594 29.9523C34.6695 29.1758 35.3088 28.5546 36.0901 28.5647C36.8714 28.5748 37.4964 29.2101 37.4862 29.9866C37.4761 30.763 36.8369 31.3842 36.0556 31.3741ZM36.1306 24.9809C35.3493 24.9708 34.7243 24.3355 34.7345 23.559C34.7446 22.7826 35.3838 22.1614 36.1651 22.1715C36.9464 22.1816 37.5715 22.8169 37.5613 23.5933C37.5512 24.3698 36.9119 24.991 36.1306 24.9809Z"/>
</mask>
<path d="M41.8838 25.0837L42.2065 25.0878C42.6286 25.0918 42.9776 24.753 42.9817 24.3355L43 22.7564C43.004 22.3369 42.6631 21.99 42.243 21.9859L41.9204 21.9819C41.4983 21.9779 41.1492 22.3167 41.1451 22.7342V22.9782L39.5765 22.9601L39.6373 17.7608C39.6455 17.0488 38.9656 16.5225 38.2736 16.714C37.6384 16.8895 37.0033 17.1114 36.3721 17.1537C36.2078 17.1658 36.0434 17.1315 35.8932 17.069C34.6289 16.5366 32.6868 15.3729 30.2699 15.3789C28.1168 15.383 26.3431 16.4156 25.1296 16.9137C24.9409 16.9903 24.7318 17.0105 24.5309 16.9742L21.8481 16.4902C21.1906 16.3712 20.5859 16.8693 20.5778 17.5308L20.5169 22.7221L19.0294 22.7039V22.4599C19.0375 22.0404 18.6966 21.6935 18.2745 21.6895L17.9518 21.6854C17.5297 21.6814 17.1806 22.0202 17.1766 22.4377L17.1583 24.0168C17.1543 24.4363 17.4952 24.7832 17.9153 24.7873L18.2379 24.7913C18.66 24.7953 19.0091 24.4565 19.0131 24.039V23.9624L20.5007 23.9805L20.4377 29.2323L18.9502 29.2141V28.9701C18.9584 28.5506 18.6174 28.2037 18.1953 28.1997L17.8727 28.1956C17.4505 28.1916 17.1015 28.5304 17.0974 28.9479L17.0792 30.5271C17.0751 30.9465 17.4161 31.2934 17.8361 31.2975L18.1588 31.3015C18.5809 31.3055 18.9299 30.9667 18.934 30.5492V30.4726L20.4235 30.4908L20.3606 35.7425L18.8731 35.7243V35.4803C18.8812 35.0608 18.5403 34.7139 18.1182 34.7099L17.7955 34.7058C17.3734 34.7018 17.0244 35.0406 17.0203 35.4581L17 37.0413C16.996 37.4608 17.3369 37.8077 17.757 37.8117L18.0796 37.8157C18.5017 37.8198 18.8508 37.4809 18.8549 37.0635V36.9868L20.3444 37.005L20.2754 42.8194C20.2693 43.4083 20.7482 43.8903 21.3408 43.8903C23.7598 43.8903 25.712 45.8547 25.6836 48.2587L25.6268 53.0869L25.6349 61.4425C25.6349 61.5251 25.7019 61.5917 25.7871 61.5917H26.6009C26.6841 61.5917 26.7531 61.5251 26.7531 61.4404V53.099L29.0888 53.1272V64.2276C29.0888 64.3103 29.1558 64.3789 29.241 64.3789H30.0548C30.138 64.3789 30.207 64.3124 30.207 64.2276V53.1413L32.626 53.1696V61.4425C32.626 61.5251 32.6929 61.5937 32.7782 61.5937H33.5919C33.6751 61.5937 33.7441 61.5272 33.7441 61.4425V53.1817L33.801 48.4563C33.8294 46.0362 35.812 44.088 38.2493 44.088H38.2615C38.852 44.088 39.3329 43.616 39.339 43.0291L39.408 37.2369L40.9747 37.2551V37.3317C40.9686 37.7512 41.3095 38.0981 41.7316 38.1021L42.0543 38.1062C42.4764 38.1102 42.8254 37.7714 42.8295 37.3539L42.8478 35.7747C42.8518 35.3553 42.5109 35.0084 42.0908 35.0043L41.7682 35.0003C41.3461 34.9963 40.997 35.3331 40.9929 35.7526V35.9966L39.4243 35.9784L39.4872 30.7267L41.0538 30.7449V30.8215C41.0477 31.241 41.3887 31.5879 41.8108 31.5919L42.1334 31.596C42.5555 31.6 42.9046 31.2612 42.9086 30.8437L42.9269 29.2645C42.931 28.845 42.59 28.4982 42.17 28.4941L41.8473 28.4901C41.4252 28.4861 41.0761 28.8249 41.0721 29.2424V29.4864L39.5034 29.4682L39.5663 24.2165L41.133 24.2347V24.3113C41.1269 24.7308 41.4678 25.0777 41.8899 25.0817L41.8838 25.0837ZM23.845 37.6241C23.0637 37.6141 22.4387 36.9788 22.4488 36.2023C22.459 35.4258 23.0982 34.8047 23.8795 34.8148C24.6608 34.8248 25.2858 35.4601 25.2757 36.2366C25.2655 37.0131 24.6263 37.6342 23.845 37.6241ZM23.9201 31.2309C23.1388 31.2208 22.5138 30.5855 22.5239 29.8091C22.5341 29.0326 23.1733 28.4114 23.9546 28.4215C24.7359 28.4316 25.3609 29.0669 25.3508 29.8434C25.3406 30.6198 24.7014 31.241 23.9201 31.2309ZM23.9952 24.8377C23.2139 24.8276 22.5888 24.1923 22.599 23.4158C22.6091 22.6394 23.2484 22.0182 24.0297 22.0283C24.811 22.0384 25.436 22.6737 25.4259 23.4501C25.4157 24.2266 24.7765 24.8478 23.9952 24.8377ZM35.9805 37.7673C35.1992 37.7572 34.5741 37.122 34.5843 36.3455C34.5944 35.569 35.2337 34.9479 36.015 34.9579C36.7963 34.968 37.4213 35.6033 37.4112 36.3798C37.401 37.1562 36.7618 37.7774 35.9805 37.7673ZM36.0556 31.3741C35.2743 31.364 34.6492 30.7287 34.6594 29.9523C34.6695 29.1758 35.3088 28.5546 36.0901 28.5647C36.8714 28.5748 37.4964 29.2101 37.4862 29.9866C37.4761 30.763 36.8369 31.3842 36.0556 31.3741ZM36.1306 24.9809C35.3493 24.9708 34.7243 24.3355 34.7345 23.559C34.7446 22.7826 35.3838 22.1614 36.1651 22.1715C36.9464 22.1816 37.5715 22.8169 37.5613 23.5933C37.5512 24.3698 36.9119 24.991 36.1306 24.9809Z" fill="black" stroke="black" stroke-width="2" mask="url(#path-1-inside-1_3412_5)"/>
</svg>
