<svg width="12" height="17" viewBox="0 0 12 17" fill="none" xmlns="http://www.w3.org/2000/svg">
<path d="M5.16824 12.3596H1.29206C0.92598 12.3596 0.618901 12.2361 0.370825 11.9891C0.12275 11.742 -0.000856902 11.4367 4.47079e-06 11.073V5.92643C4.47079e-06 5.56188 0.124042 5.25609 0.372118 5.00906C0.620193 4.76202 0.926841 4.63894 1.29206 4.63979H5.16824L9.43203 0.393891C9.84119 -0.0135445 10.3098 -0.104895 10.8378 0.119837C11.3658 0.34457 11.6294 0.746859 11.6285 1.3267V15.6727C11.6285 16.2517 11.3645 16.654 10.8365 16.8796C10.3085 17.1052 9.84033 17.0138 9.43203 16.6055L5.16824 12.3596Z" fill="#323232"/>
</svg>
