<svg width="162" height="162" viewBox="0 0 162 162" fill="none" xmlns="http://www.w3.org/2000/svg">
<path d="M162 81L144.081 84.5507L161.495 90.0613L143.292 91.5969L159.985 99.0207L141.727 98.4989L157.474 107.76L139.385 105.18L153.991 116.155L136.309 111.561L149.587 124.105L132.534 117.555L144.327 131.507L128.109 123.095L138.274 138.274L123.095 128.109L131.507 144.327L117.555 132.534L124.105 149.587L111.556 136.309L116.155 153.991L105.18 139.389L107.76 157.474L98.4989 141.727L99.0207 159.985L91.5969 143.292L90.0613 161.495L84.5507 144.081L81 162L77.4493 144.081L71.9387 161.495L70.4031 143.292L62.9793 159.985L63.501 141.727L54.2404 157.474L56.8196 139.385L45.8409 153.991L50.4394 136.309L37.8953 149.587L44.441 132.534L30.4927 144.327L38.9007 128.109L23.7222 138.274L33.8865 123.095L17.6729 131.507L29.4619 117.555L12.4126 124.105L25.6863 111.556L8.00922 116.155L22.6108 105.18L4.5264 107.76L20.2733 98.4989L2.01503 99.0207L18.7037 91.5969L0.500576 90.0613L17.9189 84.5507L0 81L17.9189 77.4493L0.500576 71.9387L18.7037 70.4031L2.01503 62.9793L20.2733 63.501L4.5264 54.2404L22.6108 56.8196L8.00922 45.8409L25.6906 50.4394L12.4126 37.8953L29.4661 44.441L17.6729 30.4927L33.8907 38.9007L23.7265 23.7222L38.9049 33.8865L30.4927 17.6729L44.4452 29.4619L37.8953 12.4126L50.4394 25.6863L45.8451 8.00922L56.8196 22.6108L54.2404 4.5264L63.501 20.2733L62.9793 2.01503L70.4031 18.7037L71.9387 0.500576L77.4493 17.9189L81 0L84.5507 17.9189L90.0613 0.500576L91.5969 18.7037L99.0207 2.01503L98.4989 20.2733L107.76 4.5264L105.18 22.6108L116.155 8.00922L111.561 25.6906L124.105 12.4126L117.555 29.4661L131.507 17.6729L123.095 33.8907L138.274 23.7265L128.109 38.9049L144.327 30.4927L132.534 44.4452L149.587 37.8953L136.309 50.4394L153.991 45.8451L139.389 56.8196L157.474 54.2404L141.727 63.501L159.985 62.9793L143.292 70.4031L161.495 71.9387L144.081 77.4493L162 81Z" fill="#A8DB10"/>
</svg>
