<svg width="189" height="189" viewBox="0 0 189 189" fill="none" xmlns="http://www.w3.org/2000/svg">
<path d="M137.044 98.227L136.948 99.2064L181.099 111.704L135.518 106.441L135.233 107.383L176.06 128.291L132.415 114.181L131.951 115.049L167.913 143.575L127.831 121.197L127.207 121.957L156.947 156.947L121.957 127.207L121.197 127.831L143.571 167.913L115.049 131.951L114.181 132.415L128.292 176.063L107.379 135.233L106.437 135.518L111.703 181.096L99.2064 136.948L98.227 137.044L94.5 182.836L90.773 137.044L89.7936 136.948L77.2961 181.099L82.5591 135.518L81.6173 135.233L60.7091 176.06L74.8187 132.415L73.9512 131.951L45.425 167.913L67.8033 127.831L67.0429 127.207L32.0527 156.947L61.7935 121.957L61.1688 121.197L21.0865 143.571L57.0495 115.049L56.585 114.181L12.9373 128.292L53.7674 107.379L53.4821 106.437L7.90405 111.703L52.0518 99.2064L51.9562 98.227L6.16372 94.5L51.9562 90.773L52.0518 89.7936L7.90115 77.296L53.4821 82.5591L53.7674 81.6173L12.9399 60.7091L56.585 74.8187L57.0495 73.9512L21.0865 45.425L61.1687 67.8033L61.7935 67.0429L32.0526 32.0526L67.0429 61.7935L67.8033 61.1688L45.4286 21.0865L73.9512 57.0495L74.8187 56.585L60.7091 12.9399L81.6173 53.7674L82.5591 53.4821L77.296 7.90115L89.7936 52.0518L90.773 51.9562L94.5 6.16372L98.227 51.9562L99.2064 52.0518L111.704 7.90114L106.441 53.4821L107.383 53.7674L128.291 12.9399L114.181 56.585L115.049 57.0495L143.575 21.0865L121.197 61.1687L121.957 61.7935L156.947 32.0527L127.207 67.0429L127.831 67.8033L167.913 45.4286L131.951 73.9512L132.415 74.8187L176.06 60.7091L135.233 81.6173L135.518 82.5591L181.099 77.2961L136.948 89.7936L137.044 90.773L182.836 94.5L137.044 98.227Z" stroke="#A8DB10"/>
</svg>
