<svg width="140" height="150" viewBox="0 0 140 150" fill="none" xmlns="http://www.w3.org/2000/svg">
<path d="M78.862 149.998C73.8412 149.998 68.7825 149.521 63.7427 148.556C42.8582 144.562 24.7805 132.674 12.8377 115.084C1.70086 98.6801 -2.38124 78.9216 1.34288 59.4453C5.06701 39.9713 16.154 23.1119 32.5582 11.9751C47.8601 1.58741 66.291 -2.22205 84.4565 1.25317C102.622 4.72838 118.346 15.0663 128.733 30.3682C138.427 44.646 141.978 61.8419 138.737 78.7913C135.497 95.7406 125.849 110.412 111.571 120.105C98.2626 129.139 81.3084 133.072 65.0536 130.891C48.0047 128.606 33.689 120.091 24.7449 106.918C20.4637 100.612 17.4981 93.5668 15.9288 85.974C14.3998 78.585 14.2647 71.0443 15.5259 63.5629C18.169 47.8723 26.6579 34.2701 39.4257 25.2644C52.0583 16.3535 67.1895 12.9328 82.0314 15.6353C96.6814 18.3021 109.783 26.7531 117.976 38.8215C125.182 49.4368 127.385 63.7028 124.018 77.9616C120.735 91.8672 112.661 104.045 101.868 111.374C96.7288 114.864 90.8807 117.137 84.485 118.128C78.4567 119.064 72.2458 118.823 66.0208 117.415C53.4474 114.565 42.3177 107.16 35.4834 97.0942C29.3058 87.9937 27.3122 76.1149 30.0146 64.504C32.8569 52.2933 40.3763 41.9412 50.6455 36.1025C60.1585 30.6953 70.9539 28.4125 81.0406 29.6784C91.983 31.0509 101.235 36.6003 107.093 45.3097C113.135 54.2941 115.032 65.182 112.431 75.9679C110.001 86.038 103.793 95.0864 95.3942 100.788C89.3801 104.87 82.643 106.832 75.996 106.832C64.973 106.832 54.1965 101.442 47.3694 91.3812C42.4528 84.1392 40.8646 75.6124 42.8985 67.3723C44.8495 59.4737 49.9651 52.3763 57.3091 47.391C64.6625 42.3987 73.4264 40.5781 81.3487 42.4034C88.5718 44.0652 94.6546 48.6403 98.4806 55.2897C102.039 61.4744 102.951 68.1641 101.114 74.6333C99.2273 81.2874 94.5526 87.0479 88.2849 90.4401C88.2565 90.4543 88.2304 90.4686 88.202 90.4828C82.0694 93.6119 76.0553 94.4582 70.8069 92.9268C65.907 91.4974 61.8842 88.1288 59.1723 83.1839C54.5189 74.6997 57.2047 63.7668 65.4211 57.7527C70.4276 54.0878 76.9348 54.0831 82.0006 57.7408C87.1494 61.4579 89.1739 67.9081 87.1565 74.1711C86.5023 76.205 84.3214 77.3215 82.2875 76.6673C80.2535 76.013 79.137 73.8321 79.7913 71.7982C81.2729 67.1993 78.3927 64.677 77.4729 64.0133C75.0241 62.2449 72.1605 62.4606 69.7592 64.2029C62.107 69.7571 63.5507 82.7501 72.976 85.4999C76.3303 86.4789 80.2559 85.8436 84.6438 83.6129C89.0672 81.2068 92.3552 77.1651 93.6732 72.5212C94.9248 68.1048 94.2706 63.4776 91.7768 59.1466C88.9961 54.3154 84.7908 51.1318 79.6159 49.9417C73.782 48.6 67.2369 50.0034 61.6566 53.7915C55.8962 57.7029 51.9019 63.1836 50.4108 69.2261C48.8889 75.3966 50.0504 81.5529 53.7722 87.036C57.9088 93.1283 64.0011 97.2412 70.9278 98.6161C77.8617 99.9934 85.0089 98.4905 91.0537 94.3871C97.8809 89.7526 102.933 82.3779 104.917 74.1545C107.003 65.502 105.5 56.7926 100.681 49.6288C94.7968 40.8815 86.2344 38.127 80.0852 37.3565C71.6413 36.2969 62.5456 38.2431 54.4762 42.8301C46.0774 47.6044 39.9116 56.1431 37.5553 66.2606C35.3412 75.7736 36.92 85.4288 41.891 92.7514C47.6349 101.212 57.0554 107.453 67.7371 109.874C78.497 112.311 89.354 110.526 97.5277 104.979C106.737 98.7252 113.652 88.2331 116.494 76.1908C119.365 64.0346 117.573 51.9994 111.58 43.1715C104.544 32.8098 93.2726 25.5489 80.6518 23.2518C67.8674 20.9263 54.8129 23.8871 43.8894 31.5914C32.819 39.3999 25.4584 51.2124 23.159 64.8548C22.0591 71.388 22.1752 77.9687 23.5098 84.4142C24.8729 91.0067 27.4449 97.1179 31.1525 102.58C38.8425 113.906 51.2499 121.241 66.0872 123.229C80.4787 125.159 95.4772 121.689 107.23 113.709C119.797 105.178 128.29 92.2631 131.142 77.3429C133.994 62.4227 130.867 47.2867 122.335 34.7205C113.107 21.1278 99.1397 11.9443 83.0034 8.85787C66.8671 5.77142 50.4961 9.15419 36.9058 18.3803C22.2108 28.3556 12.2806 43.4583 8.94523 60.9031C5.60988 78.348 9.26524 96.0488 19.2405 110.741C30.0217 126.624 46.3429 137.356 65.1982 140.961C84.0511 144.567 103.181 140.615 119.064 129.834C120.833 128.634 123.236 129.094 124.438 130.86C125.638 132.629 125.178 135.032 123.409 136.234C110.065 145.294 94.6475 150 78.8644 150L78.862 149.998Z" fill="#5A50E2"/>
</svg>
