<svg width="162" height="162" viewBox="0 0 162 162" fill="none" xmlns="http://www.w3.org/2000/svg">
<path d="M162 80.9982L125.141 82.627L161.79 86.8982L124.909 85.8553L161.149 92.7799L124.442 89.0504L160.081 98.61L123.746 92.1939L158.586 104.348L122.821 95.2785L156.671 109.964L121.668 98.282L154.351 115.418L120.302 101.201L151.64 120.688L118.718 104.013L148.55 125.741L116.936 106.706L145.107 130.55L114.958 109.264L141.324 135.094L112.8 111.674L137.221 139.35L110.472 113.922L132.82 143.297L107.986 115.993L128.147 146.916L105.361 117.876L123.215 150.185L102.606 119.561L118.056 153.089L99.7441 121.038L112.693 155.606L96.7831 122.299L107.158 157.729L93.7373 123.338L101.482 159.435L90.6253 124.149L95.6966 160.718L87.458 124.731L89.8408 161.573L84.2465 125.081L83.9482 162L81.0018 125.195L78.0518 162L77.7572 125.081L72.1629 161.573L74.5457 124.731L66.3034 160.718L71.3747 124.149L60.5212 159.435L68.2627 123.338L54.8422 157.725L65.2206 122.299L49.3068 155.606L62.2558 121.035L43.9444 153.089L59.3942 119.561L38.7847 150.185L56.6394 117.876L33.8533 146.913L54.0135 115.993L29.1797 143.294L51.5312 113.922L24.7786 139.347L49.1999 111.674L20.6758 135.09L47.0418 109.264L16.8935 130.546L45.064 106.706L13.45 125.737L43.2815 104.013L10.36 120.685L41.7015 101.201L7.6494 115.418L40.3315 98.282L5.32917 109.964L39.1824 95.2785L3.41774 104.348L38.2543 92.1939L1.92248 98.61L37.5583 89.0504L0.850751 92.7799L37.0942 85.859L0.213609 86.8982L36.8622 82.627L0 80.9982L36.8622 79.373L0.213609 75.1018L37.0942 76.141L0.850751 69.2164L37.5583 72.9496L1.92248 63.39L38.2543 69.8024L3.41774 57.6484L39.1824 66.7215L5.32917 52.0358L40.3315 63.7143L7.6494 46.5779L41.7015 60.7993L10.3637 41.3117L43.2815 57.9874L13.45 36.2592L45.064 55.2935L16.8935 31.4499L47.0418 52.7323L20.6795 26.906L49.2036 50.3258L24.7786 22.6496L51.5312 48.0778L29.1797 18.7027L54.0135 46.0067L33.857 15.0837L56.6394 44.1235L38.7847 11.8149L59.3942 42.4394L43.9444 8.91094L62.2595 40.9616L49.3068 6.39023L65.2206 39.7012L54.8422 4.27121L68.2627 38.662L60.5212 2.56494L71.3747 37.8512L66.3034 1.28247L74.5457 37.269L72.1629 0.427489L77.7572 36.9189L78.0518 0L81.0018 36.8009L83.9482 0L84.2465 36.9189L89.8408 0.427489L87.458 37.269L95.6966 1.28247L90.6253 37.8512L101.482 2.56494L93.7373 38.662L107.158 4.27121L96.7831 39.7012L112.693 6.39023L99.7441 40.9616L118.056 8.91094L102.609 42.4394L123.215 11.8149L105.361 44.1235L128.147 15.0837L107.986 46.0067L132.824 18.7027L110.472 48.0778L137.225 22.6532L112.8 50.3258L141.324 26.9097L114.958 52.736L145.107 31.4536L116.936 55.2935L148.554 36.2629L118.722 57.9874L151.64 41.3117L120.302 60.7993L154.351 46.5816L121.668 63.7143L156.671 52.0358L122.821 66.7215L158.586 57.6484L123.746 69.8024L160.081 63.39L124.442 72.9496L161.149 69.2164L124.909 76.141L161.79 75.1018L125.141 79.373L162 80.9982Z" fill="url(#paint0_radial_4147_179)"/>
<defs>
<radialGradient id="paint0_radial_4147_179" cx="0" cy="0" r="1" gradientUnits="userSpaceOnUse" gradientTransform="translate(81 81) rotate(90) scale(81)">
<stop stop-color="white"/>
<stop offset="0.869792" stop-color="#A8DB10"/>
</radialGradient>
</defs>
</svg>
