<svg width="140" height="150" viewBox="0 0 140 150" fill="none" xmlns="http://www.w3.org/2000/svg">
<path d="M78.97 150C73.9385 150 68.8754 149.522 63.8244 148.557C42.9063 144.557 24.7965 132.648 12.8346 115.028C1.70153 98.6274 -2.38166 78.8746 1.34318 59.4045C5.06802 39.9344 16.1499 23.08 32.5509 11.9469C47.8159 1.58176 66.2061 -2.21621 84.3281 1.25023C102.453 4.71667 118.139 15.0331 128.505 30.2981C138.153 44.51 141.69 61.6301 138.463 78.5016C135.235 95.3731 125.63 109.98 111.418 119.628C101.38 126.444 89.7813 129.984 77.9096 129.984C74.1311 129.984 70.3283 129.626 66.5352 128.902C50.8241 125.896 37.224 116.954 28.241 103.72C19.8747 91.3947 16.8081 76.5514 19.6066 61.9202C22.4051 47.289 30.7323 34.6251 43.0575 26.2588C66.7546 10.1723 99.1202 16.3617 115.207 40.0588C122.466 50.753 125.128 63.634 122.7 76.3296C120.272 89.0253 113.044 100.015 102.353 107.274C81.7831 121.24 53.6859 115.865 39.7227 95.2951C26.7077 76.1248 31.7147 49.9388 50.8874 36.9238C68.7584 24.7913 93.1697 29.4595 105.302 47.3305C116.616 63.9947 112.262 86.7557 95.5977 98.0692C80.0548 108.62 58.8271 104.561 48.2766 89.018C43.5085 81.9949 41.7606 73.5335 43.3549 65.1941C44.9491 56.8547 49.6954 49.6366 56.7209 44.8684C70.2527 35.683 88.7355 39.2177 97.9208 52.7471C101.868 58.5611 103.208 65.6231 101.697 72.634C100.134 79.8741 95.6976 86.1999 89.5204 89.9955C84.567 93.3425 78.0875 94.4346 71.73 92.9914C65.4918 91.5751 59.9582 87.8844 56.5478 82.8603C53.3349 78.1287 52.1575 72.4293 53.2325 66.8127C54.3076 61.1962 57.5034 56.333 62.235 53.1201C71.3692 46.9185 83.8479 49.305 90.0494 58.4392C90.6247 59.2875 90.4053 60.443 89.557 61.0183C88.7087 61.5936 87.5556 61.3742 86.9779 60.5259C81.9269 53.0859 71.7617 51.1406 64.3217 56.1916C60.4116 58.8463 57.7667 62.8661 56.8794 67.5099C55.992 72.1538 56.9647 76.8635 59.6194 80.776C62.5056 85.0298 67.2202 88.1623 72.5515 89.3714C77.9242 90.5903 83.3603 89.6883 87.4703 86.8996C87.4947 86.8825 87.5191 86.8679 87.5435 86.8533C92.8796 83.5867 96.7141 78.1189 98.0671 71.8515C99.364 65.8425 98.2207 59.7994 94.8493 54.8338C86.8121 42.9962 70.6427 39.9052 58.8052 47.9399C52.6012 52.1523 48.4107 58.5269 47.0017 65.8913C45.5927 73.2556 47.1358 80.7273 51.3482 86.9313C60.7505 100.78 79.6647 104.398 93.5134 94.9952C108.483 84.8324 112.394 64.3848 102.231 49.4147C91.2488 33.238 69.1508 29.011 52.9741 39.9929C35.4957 51.8573 30.9322 75.7299 42.7966 93.2084C55.6117 112.084 81.3955 117.015 100.271 104.2C110.144 97.4963 116.816 87.3506 119.058 75.63C121.301 63.9094 118.844 52.0158 112.14 42.143C97.2017 20.1401 67.1495 14.392 45.1466 29.3303C33.643 37.1408 25.8691 48.9613 23.2583 62.6174C20.6475 76.2735 23.5094 90.1296 31.3174 101.633C39.7446 114.046 52.5012 122.434 67.2372 125.252C81.9733 128.07 96.9262 124.982 109.339 116.554C122.732 107.462 131.781 93.7008 134.821 77.802C137.86 61.9032 134.528 45.7728 125.438 32.3799C115.631 17.934 100.785 8.17335 83.6358 4.89218C66.4864 1.61101 49.086 5.20665 34.64 15.0136C19.0605 25.5909 8.53203 41.6018 4.9949 60.0968C1.45776 78.5918 5.33373 97.3598 15.911 112.939C27.3171 129.74 44.5835 141.093 64.5265 144.908C84.4719 148.723 104.707 144.542 121.508 133.136C122.357 132.561 123.51 132.78 124.087 133.628C124.663 134.477 124.443 135.632 123.595 136.207C110.226 145.283 94.7835 149.998 78.9749 149.998L78.97 150Z" fill="white"/>
</svg>
