<svg width="18" height="18" viewBox="0 0 18 18" fill="none" xmlns="http://www.w3.org/2000/svg">
<path d="M6 3C6 2.20435 6.31607 1.44129 6.87868 0.87868C7.44129 0.316071 8.20435 0 9 0C9.79565 0 10.5587 0.316071 11.1213 0.87868C11.6839 1.44129 12 2.20435 12 3V7.8C12 8.59565 11.6839 9.35871 11.1213 9.92132C10.5587 10.4839 9.79565 10.8 9 10.8C8.20435 10.8 7.44129 10.4839 6.87868 9.92132C6.31607 9.35871 6 8.59565 6 7.8V3Z" fill="#323232"/>
<path d="M2.39999 4.80005V7.80005C2.39976 9.44677 3.01513 11.0341 4.12526 12.2504C5.23539 13.4666 6.76009 14.2239 8.39999 14.3736V16.8H5.99999V18H12V16.8H9.59999V14.3736C11.2399 14.2239 12.7646 13.4666 13.8747 12.2504C14.9849 11.0341 15.6002 9.44677 15.6 7.80005V4.80005H14.4V7.80005C14.4 9.23222 13.8311 10.6057 12.8184 11.6184C11.8057 12.6311 10.4322 13.2 8.99999 13.2C7.56782 13.2 6.19431 12.6311 5.18162 11.6184C4.16892 10.6057 3.59999 9.23222 3.59999 7.80005V4.80005H2.39999Z" fill="#323232"/>
</svg>
